<svg version="1.1" xmlns="http://www.w3.org/2000/svg" width="20" height="32" viewBox="0 0 20 32"><path d="M5.943 23.314v4.571c0 0.252 0.205 0.457 0.457 0.457h7.314c0.252 0 0.457-0.205 0.457-0.457v-4.571c0-0.252-0.205-0.457-0.457-0.457h-7.314c-0.252 0-0.457 0.205-0.457 0.457zM6.857 23.771h6.4v3.657h-6.4v-3.657z"></path><path d="M3.657 0h12.8c0.252 0 0.457 0.205 0.457 0.457v1.829c0 0.252-0.205 0.457-0.457 0.457h-0.457v0.457h0.381c0.345 0 0.667-0.211 0.863-0.494l0.272-0.392c0.402-0.58 1.064-0.927 1.772-0.928 0.218-0.001 0.429 0.086 0.585 0.24 0.156 0.155 0.242 0.361 0.242 0.581v2.008c0 1.48-0.328 2.563-1.002 3.31-0.594 0.658-1.39 0.98-2.092 1.264-0.816 0.33-1.587 0.641-1.961 1.408-0.138 0.283-0.102 0.556 0.102 0.768 0.166 0.174 0.415 0.277 0.664 0.277 0.106 0 0.204-0.019 0.291-0.056 0.389-0.165 0.427-0.62 0.415-0.876-0.012-0.259 0.189-0.478 0.449-0.49 0.26-0.010 0.481 0.188 0.493 0.447 0.039 0.837-0.33 1.503-0.987 1.782-0.205 0.087-0.428 0.131-0.662 0.131-0.502 0-1.006-0.212-1.346-0.568-0.050-0.053-0.096-0.108-0.138-0.165-0.44 0.657-1.414 1.722-1.998 2.268v1.829c0 0.252-0.205 0.457-0.457 0.457h-0.37c0.095 0.463 0.242 1.025 0.444 1.565 0.272 0.726 0.612 1.324 0.991 1.635h4.421c0.252 0 0.457 0.205 0.457 0.457v1.829c0 0.252-0.205 0.457-0.457 0.457h-0.457v7.314h0.457c0.252 0 0.457 0.205 0.457 0.457v1.829c0 0.252-0.205 0.457-0.457 0.457h-14.629c-0.252 0-0.457-0.205-0.457-0.457v-1.829c0-0.252 0.205-0.457 0.457-0.457h0.457v-7.314h-0.457c-0.252 0-0.457-0.205-0.457-0.457v-1.829c0-0.252 0.205-0.457 0.457-0.457h4.421c0.378-0.31 0.719-0.908 0.991-1.635 0.202-0.54 0.349-1.103 0.444-1.565h-0.37c-0.252 0-0.457-0.205-0.457-0.457v-1.829c-0.585-0.547-1.554-1.614-1.994-2.273-0.043 0.059-0.090 0.116-0.142 0.17-0.341 0.356-0.844 0.568-1.346 0.568-0.234 0-0.457-0.044-0.662-0.131-0.657-0.279-1.026-0.945-0.987-1.782 0.012-0.259 0.231-0.457 0.493-0.447 0.26 0.012 0.461 0.231 0.449 0.49-0.012 0.256 0.026 0.711 0.415 0.877 0.087 0.037 0.186 0.056 0.291 0.056 0.249 0 0.498-0.104 0.664-0.277 0.204-0.212 0.24-0.485 0.102-0.768-0.374-0.767-1.145-1.078-1.961-1.408-0.703-0.284-1.499-0.605-2.092-1.264-0.674-0.747-1.002-1.83-1.002-3.31v-2.008c0-0.22 0.086-0.426 0.242-0.581 0.154-0.153 0.365-0.24 0.581-0.24h0.006c0.705 0.002 1.367 0.349 1.769 0.928l0.272 0.392c0.196 0.282 0.518 0.494 0.863 0.494h0.381v-0.457h-0.457c-0.252 0-0.457-0.205-0.457-0.457v-1.829c0-0.252 0.205-0.457 0.457-0.457zM15.086 2.743h-10.057v2.934c0 2.974 1.36 5.804 3.756 7.58h2.551c2.396-1.776 3.749-4.606 3.749-7.58v-2.934zM16 0.914h-11.886v0.914h11.886v-0.914zM7.322 20.114c-0.005 0-0.009 0-0.014 0h-4.108v0.914h13.714v-0.914h-9.593zM11.751 19.2c-0.269-0.404-0.481-0.869-0.648-1.314-0.248-0.663-0.419-1.351-0.519-1.886h-1.054c-0.1 0.535-0.271 1.223-0.519 1.886-0.167 0.445-0.379 0.91-0.648 1.314h3.388zM11.429 15.086v-0.914h-2.743v0.914h0.449c0.005-0 0.009-0 0.014 0h2.279zM4.114 21.943v7.314h11.886v-7.314h-11.886zM16.914 30.171h-13.714v0.914h13.714v-0.914zM1.704 6.899c0.448 0.497 1.078 0.752 1.745 1.021 0.3 0.121 0.613 0.248 0.916 0.403-0.228-0.856-0.25-1.745-0.25-2.646v-1.563h-0.381c-0.655 0-1.267-0.339-1.639-0.875l-0.272-0.392c-0.204-0.294-0.526-0.482-0.879-0.517v1.885c0 1.239 0.249 2.117 0.76 2.684zM16.666 7.92c0.667-0.269 1.297-0.524 1.745-1.021 0.512-0.567 0.76-1.445 0.76-2.684v-1.884c-0.354 0.036-0.676 0.223-0.879 0.517l-0.272 0.392c-0.371 0.536-0.984 0.875-1.639 0.875h-0.381v1.563c0 0.9-0.015 1.787-0.243 2.642 0.301-0.153 0.612-0.279 0.909-0.399z"></path></svg>
