<svg version="1.1" xmlns="http://www.w3.org/2000/svg" width="32" height="32" viewBox="0 0 32 32"><path fill="none" stroke-linejoin="miter" stroke-linecap="butt" stroke-miterlimit="4" stroke-width="1.3913" stroke="#000" d="M31.304 16c0 8.452-6.852 15.304-15.304 15.304s-15.304-6.852-15.304-15.304c0-8.452 6.852-15.304 15.304-15.304s15.304 6.852 15.304 15.304z"></path><path opacity="0.3" fill="#000" d="M16.696 13.913v-1.043c0-0.184 0.073-0.361 0.204-0.492s0.307-0.204 0.492-0.204h0.696v-1.739h-1.391c-0.553 0-1.084 0.22-1.476 0.611s-0.611 0.922-0.611 1.476v1.391h-1.391v2.087h1.391v5.565h2.087v-5.565h1.391l0.696-2.087h-2.087z"></path></svg>
