<svg version="1.1" xmlns="http://www.w3.org/2000/svg" width="32" height="32" viewBox="0 0 32 32"><path fill="none" stroke-linejoin="miter" stroke-linecap="butt" stroke-miterlimit="4" stroke-width="1.3913" stroke="#000" d="M31.304 16c0 8.452-6.852 15.304-15.304 15.304s-15.304-6.852-15.304-15.304c0-8.452 6.852-15.304 15.304-15.304s15.304 6.852 15.304 15.304z"></path><path opacity="0.3" fill="#000" d="M11.375 20.626c-1.055-1.055-0.934-2.464-0.934-4.629 0-2.115-0.139-3.557 0.934-4.627 0.631-0.592 1.469-0.915 2.335-0.9 1.025-0.046 3.562-0.048 4.586 0 2.095 0.097 3.144 1.281 3.235 3.236 0.045 1.024 0.048 3.56 0 4.585-0.076 1.655-0.854 2.574-1.886 2.977-0.758 0.294-1.498 0.292-3.642 0.292-0.435 0-0.842 0.006-1.225 0.006-1.457-0.001-2.552-0.089-3.402-0.94zM19.916 19.917c0.69-0.696 0.646-1.628 0.646-3.92 0-1.485-0.006-1.661-0.033-2.248-0.116-2.574-2.056-2.313-4.527-2.313l-0.022-0.014c-1.487 0-1.661 0.008-2.252 0.028-2.574 0.132-2.307 1.978-2.307 4.539 0 1.894-0.139 3.143 0.64 3.921 0.678 0.68 1.608 0.645 3.926 0.645 2.253 0.001 3.226 0.063 3.928-0.639zM13.149 15.999c-0.001-0.375 0.073-0.747 0.216-1.093s0.354-0.662 0.619-0.927c0.265-0.265 0.58-0.476 0.927-0.619s0.718-0.217 1.093-0.216c0.757 0 1.484 0.301 2.019 0.836s0.836 1.262 0.836 2.019c-0.001 0.757-0.303 1.483-0.839 2.018s-1.263 0.835-2.020 0.834c-0.756 0-1.482-0.301-2.017-0.836s-0.835-1.26-0.835-2.017zM14.151 15.999c-0 0.243 0.048 0.485 0.141 0.71s0.23 0.43 0.402 0.602c0.172 0.172 0.377 0.309 0.602 0.402s0.466 0.141 0.71 0.141c0.243 0 0.485-0.048 0.71-0.141s0.429-0.23 0.602-0.402c0.172-0.172 0.309-0.377 0.402-0.602s0.141-0.466 0.141-0.71c0-0.243-0.048-0.484-0.141-0.709s-0.23-0.429-0.402-0.601-0.377-0.309-0.601-0.402c-0.225-0.093-0.466-0.141-0.709-0.141s-0.485 0.047-0.71 0.14c-0.225 0.093-0.43 0.229-0.602 0.401s-0.309 0.377-0.402 0.602c-0.093 0.225-0.141 0.466-0.141 0.71h0.002zM18.306 13.031c0-0.088 0.017-0.174 0.051-0.255s0.083-0.155 0.145-0.216c0.062-0.062 0.136-0.111 0.217-0.144s0.168-0.051 0.255-0.051c0.177 0 0.346 0.070 0.471 0.195s0.195 0.294 0.196 0.471c0 0.088-0.017 0.174-0.051 0.255s-0.083 0.155-0.145 0.217c-0.062 0.062-0.136 0.111-0.217 0.144s-0.168 0.051-0.255 0.051c-0.088 0-0.175-0.017-0.257-0.050s-0.155-0.082-0.218-0.145-0.112-0.136-0.145-0.218c-0.034-0.081-0.051-0.168-0.050-0.256l0.002 0.002z"></path></svg>
