<svg class="twiter"  version="1.1" xmlns="http://www.w3.org/2000/svg" width="32" height="32" viewBox="0 0 32 32"><path fill="none" stroke-linejoin="miter" stroke-linecap="butt" stroke-miterlimit="4" stroke-width="1.3913" stroke="#000" d="M31.304 16c0 8.452-6.852 15.304-15.304 15.304s-15.304-6.852-15.304-15.304c0-8.452 6.852-15.304 15.304-15.304s15.304 6.852 15.304 15.304z"></path><path opacity="0.3" fill="#000" d="M21.565 12.896c-0.419 0.183-0.861 0.304-1.315 0.36 0.478-0.283 0.835-0.732 1.004-1.261-0.447 0.265-0.937 0.452-1.447 0.552-0.313-0.334-0.719-0.566-1.165-0.666s-0.913-0.064-1.338 0.105c-0.426 0.168-0.791 0.46-1.048 0.839s-0.395 0.825-0.395 1.283c-0.002 0.175 0.016 0.349 0.053 0.52-0.908-0.044-1.796-0.28-2.607-0.691s-1.525-0.989-2.097-1.695c-0.294 0.502-0.385 1.097-0.254 1.664s0.472 1.062 0.956 1.386c-0.361-0.009-0.715-0.104-1.031-0.278v0.025c0.001 0.527 0.184 1.037 0.516 1.445s0.796 0.69 1.312 0.797c-0.195 0.051-0.396 0.077-0.598 0.075-0.145 0.003-0.29-0.011-0.432-0.039 0.147 0.453 0.432 0.849 0.813 1.134s0.843 0.444 1.319 0.456c-0.808 0.632-1.804 0.975-2.829 0.974-0.183-0-0.365-0.012-0.546-0.036 1.043 0.672 2.259 1.028 3.501 1.024 0.854 0.006 1.701-0.158 2.492-0.482s1.509-0.802 2.113-1.406 1.082-1.322 1.407-2.113c0.324-0.79 0.488-1.638 0.483-2.492 0-0.101-0.003-0.198-0.008-0.295 0.45-0.322 0.838-0.724 1.144-1.185z"></path></svg>
