<svg version="1.1" xmlns="http://www.w3.org/2000/svg" width="32" height="32" viewBox="0 0 32 32"><path fill="none" stroke-linejoin="miter" stroke-linecap="butt" stroke-miterlimit="4" stroke-width="1.3913" stroke="#000" d="M31.304 16c0 8.452-6.852 15.304-15.304 15.304s-15.304-6.852-15.304-15.304c0-8.452 6.852-15.304 15.304-15.304s15.304 6.852 15.304 15.304z"></path><path opacity="0.3" fill="#000" d="M16.003 19.478c-1.354 0-3.094-0.021-3.799-0.061-0.646-0.045-0.984-0.126-1.297-0.68s-0.472-1.53-0.472-3.080v-0.007c0-1.572 0.145-2.524 0.472-3.086 0.302-0.534 0.63-0.636 1.298-0.674 0.71-0.047 2.49-0.064 3.798-0.064s3.082 0.017 3.794 0.064c0.669 0.038 0.997 0.139 1.296 0.674 0.328 0.557 0.474 1.507 0.474 3.087v0.005c0 1.581-0.145 2.531-0.472 3.082-0.299 0.53-0.626 0.634-1.297 0.679-0.703 0.039-2.44 0.061-3.794 0.061zM14.611 13.565v4.174l3.478-2.087-3.478-2.087z"></path></svg>
